<svg width="66" height="18" viewBox="0 0 66 18" fill="none" xmlns="http://www.w3.org/2000/svg">
<path d="M10.092 2.04C10.34 2.088 10.524 2.172 10.644 2.292C10.772 2.412 10.836 2.552 10.836 2.712C10.836 2.976 10.76 3.168 10.608 3.288C10.464 3.408 10.232 3.456 9.912 3.432C9.192 3.376 8.628 3.34 8.22 3.324C7.82 3.3 7.292 3.284 6.636 3.276C6.34 4.748 6.068 6.228 5.82 7.716C5.732 8.26 5.64 8.892 5.544 9.612C5.448 10.324 5.384 10.9 5.352 11.34C5.336 11.572 5.24 11.752 5.064 11.88C4.888 12 4.676 12.06 4.428 12.06C4.164 12.06 3.96 11.996 3.816 11.868C3.672 11.74 3.6 11.572 3.6 11.364C3.6 11.172 3.628 10.856 3.684 10.416C3.748 9.968 3.82 9.5 3.9 9.012C3.988 8.524 4.056 8.1 4.104 7.74C4.192 7.132 4.292 6.528 4.404 5.928C4.516 5.328 4.628 4.76 4.74 4.224C4.764 4.104 4.792 3.968 4.824 3.816C4.856 3.656 4.892 3.48 4.932 3.288C4.148 3.312 3.532 3.376 3.084 3.48C2.636 3.584 2.316 3.732 2.124 3.924C1.94 4.108 1.848 4.348 1.848 4.644C1.848 4.916 1.928 5.176 2.088 5.424C2.12 5.48 2.136 5.54 2.136 5.604C2.136 5.756 2.044 5.9 1.86 6.036C1.684 6.164 1.5 6.228 1.308 6.228C1.172 6.228 1.06 6.188 0.972 6.108C0.812 5.972 0.68 5.78 0.576 5.532C0.472 5.276 0.42 4.988 0.42 4.668C0.42 3.988 0.64 3.444 1.08 3.036C1.528 2.62 2.204 2.316 3.108 2.124C4.02 1.932 5.188 1.836 6.612 1.836C7.492 1.836 8.192 1.852 8.712 1.884C9.24 1.916 9.7 1.968 10.092 2.04ZM9.43191 12.06C9.12791 12.06 8.91191 11.9 8.78391 11.58C8.66391 11.26 8.60391 10.748 8.60391 10.044C8.60391 9.004 8.75191 8.016 9.04791 7.08C9.11991 6.848 9.23591 6.68 9.39591 6.576C9.56391 6.464 9.79591 6.408 10.0919 6.408C10.2519 6.408 10.3639 6.428 10.4279 6.468C10.4919 6.508 10.5239 6.584 10.5239 6.696C10.5239 6.824 10.4639 7.112 10.3439 7.56C10.2639 7.88 10.1999 8.16 10.1519 8.4C10.1039 8.64 10.0639 8.936 10.0319 9.288C10.2959 8.6 10.5919 8.04 10.9199 7.608C11.2479 7.176 11.5679 6.868 11.8799 6.684C12.1999 6.5 12.4919 6.408 12.7559 6.408C13.2759 6.408 13.5359 6.668 13.5359 7.188C13.5359 7.292 13.4999 7.544 13.4279 7.944C13.3639 8.264 13.3319 8.464 13.3319 8.544C13.3319 8.824 13.4319 8.964 13.6319 8.964C13.8559 8.964 14.1439 8.788 14.4959 8.436C14.5999 8.332 14.7079 8.28 14.8199 8.28C14.9239 8.28 15.0039 8.328 15.0599 8.424C15.1239 8.512 15.1559 8.632 15.1559 8.784C15.1559 9.08 15.0759 9.312 14.9159 9.48C14.6919 9.712 14.4279 9.912 14.1239 10.08C13.8279 10.24 13.5119 10.32 13.1759 10.32C12.7519 10.32 12.4279 10.212 12.2039 9.996C11.9879 9.78 11.8799 9.488 11.8799 9.12C11.8799 9 11.8919 8.88 11.9159 8.76C11.9319 8.6 11.9399 8.492 11.9399 8.436C11.9399 8.308 11.8959 8.244 11.8079 8.244C11.6879 8.244 11.5279 8.38 11.3279 8.652C11.1359 8.916 10.9439 9.268 10.7519 9.708C10.5599 10.148 10.4039 10.612 10.2839 11.1C10.1959 11.476 10.0919 11.732 9.97191 11.868C9.85991 11.996 9.67991 12.06 9.43191 12.06ZM15.5168 12.06C15.0208 12.06 14.6248 11.88 14.3288 11.52C14.0328 11.16 13.8848 10.688 13.8848 10.104C13.8848 9.464 14.0328 8.86 14.3288 8.292C14.6248 7.716 15.0168 7.256 15.5048 6.912C16.0008 6.56 16.5248 6.384 17.0768 6.384C17.2528 6.384 17.3688 6.42 17.4248 6.492C17.4888 6.556 17.5408 6.676 17.5808 6.852C17.7488 6.82 17.9248 6.804 18.1088 6.804C18.5008 6.804 18.6968 6.944 18.6968 7.224C18.6968 7.392 18.6368 7.792 18.5168 8.424C18.3328 9.344 18.2408 9.984 18.2408 10.344C18.2408 10.464 18.2688 10.56 18.3248 10.632C18.3888 10.704 18.4688 10.74 18.5648 10.74C18.7168 10.74 18.9008 10.644 19.1168 10.452C19.3328 10.252 19.6248 9.932 19.9928 9.492C20.0888 9.38 20.1968 9.324 20.3168 9.324C20.4208 9.324 20.5008 9.372 20.5568 9.468C20.6208 9.564 20.6528 9.696 20.6528 9.864C20.6528 10.184 20.5768 10.432 20.4248 10.608C20.0968 11.016 19.7488 11.36 19.3808 11.64C19.0128 11.92 18.6568 12.06 18.3128 12.06C18.0488 12.06 17.8048 11.972 17.5808 11.796C17.3648 11.612 17.2008 11.364 17.0888 11.052C16.6728 11.724 16.1488 12.06 15.5168 12.06ZM15.9488 10.848C16.1248 10.848 16.2928 10.744 16.4528 10.536C16.6128 10.328 16.7288 10.052 16.8008 9.708L17.2448 7.5C16.9088 7.508 16.5968 7.636 16.3088 7.884C16.0288 8.124 15.8048 8.444 15.6368 8.844C15.4688 9.244 15.3848 9.668 15.3848 10.116C15.3848 10.364 15.4328 10.548 15.5288 10.668C15.6328 10.788 15.7728 10.848 15.9488 10.848ZM25.7348 8.352C25.7588 8.344 25.7988 8.34 25.8548 8.34C25.9748 8.34 26.0668 8.38 26.1308 8.46C26.1948 8.54 26.2268 8.648 26.2268 8.784C26.2268 9.032 26.1788 9.228 26.0828 9.372C25.9868 9.508 25.8428 9.608 25.6508 9.672C25.2828 9.792 24.8908 9.852 24.4748 9.852C24.1228 9.852 23.7908 9.804 23.4788 9.708C23.2468 10.084 22.9908 10.472 22.7108 10.872C22.3908 11.328 22.1148 11.64 21.8828 11.808C21.6508 11.976 21.3868 12.06 21.0908 12.06C20.7628 12.06 20.5028 11.932 20.3108 11.676C20.1268 11.42 20.0108 11.016 19.9628 10.464C19.8668 9.344 19.8188 8.364 19.8188 7.524V7.104C19.8268 6.84 19.8988 6.656 20.0348 6.552C20.1708 6.448 20.3748 6.396 20.6468 6.396C20.8548 6.396 21.0068 6.444 21.1028 6.54C21.2068 6.628 21.2588 6.78 21.2588 6.996C21.2588 7.916 21.3148 9.112 21.4268 10.584C21.9068 9.872 22.2668 9.304 22.5068 8.88C22.3868 8.648 22.3268 8.372 22.3268 8.052C22.3268 7.78 22.3868 7.516 22.5068 7.26C22.6268 7.004 22.7908 6.796 22.9988 6.636C23.2068 6.476 23.4428 6.396 23.7068 6.396C23.9388 6.396 24.1268 6.48 24.2708 6.648C24.4148 6.808 24.4868 7.044 24.4868 7.356C24.4868 7.716 24.3908 8.128 24.1988 8.592C24.5028 8.576 24.9068 8.516 25.4108 8.412L25.7348 8.352ZM30.5374 9.324C30.6414 9.324 30.7214 9.372 30.7774 9.468C30.8414 9.564 30.8734 9.696 30.8734 9.864C30.8734 10.184 30.7974 10.432 30.6454 10.608C30.3494 10.968 29.9294 11.3 29.3854 11.604C28.8494 11.908 28.2734 12.06 27.6574 12.06C26.8174 12.06 26.1654 11.832 25.7014 11.376C25.2374 10.92 25.0054 10.296 25.0054 9.504C25.0054 8.952 25.1214 8.44 25.3534 7.968C25.5854 7.488 25.9054 7.108 26.3134 6.828C26.7294 6.548 27.1974 6.408 27.7174 6.408C28.1814 6.408 28.5534 6.548 28.8334 6.828C29.1134 7.1 29.2534 7.472 29.2534 7.944C29.2534 8.496 29.0534 8.972 28.6534 9.372C28.2614 9.764 27.5934 10.076 26.6494 10.308C26.8494 10.676 27.2294 10.86 27.7894 10.86C28.1494 10.86 28.5574 10.736 29.0134 10.488C29.4774 10.232 29.8774 9.9 30.2134 9.492C30.3094 9.38 30.4174 9.324 30.5374 9.324ZM27.5134 7.584C27.2174 7.584 26.9654 7.756 26.7574 8.1C26.5574 8.444 26.4574 8.86 26.4574 9.348V9.372C26.9294 9.26 27.3014 9.092 27.5734 8.868C27.8454 8.644 27.9814 8.384 27.9814 8.088C27.9814 7.936 27.9374 7.816 27.8494 7.728C27.7694 7.632 27.6574 7.584 27.5134 7.584ZM33.3643 10.308C33.4523 10.228 33.5403 10.188 33.6283 10.188C33.7243 10.188 33.8003 10.244 33.8563 10.356C33.9203 10.46 33.9523 10.588 33.9523 10.74C33.9523 11.076 33.8323 11.344 33.5923 11.544C33.1763 11.888 32.7043 12.06 32.1763 12.06C31.4163 12.06 30.8603 11.744 30.5083 11.112C30.1563 10.472 29.9803 9.64 29.9803 8.616C29.9803 7.64 30.1043 6.528 30.3523 5.28C30.6083 4.032 30.9803 2.96 31.4683 2.064C31.9643 1.168 32.5523 0.719999 33.2323 0.719999C33.6163 0.719999 33.9163 0.899999 34.1323 1.26C34.3563 1.612 34.4683 2.12 34.4683 2.784C34.4683 3.736 34.2043 4.84 33.6763 6.096C33.1563 7.352 32.4443 8.592 31.5403 9.816C31.5963 10.144 31.6963 10.38 31.8403 10.524C31.9843 10.668 32.1803 10.74 32.4283 10.74C32.5643 10.74 32.7163 10.7 32.8843 10.62C33.0603 10.54 33.2203 10.436 33.3643 10.308ZM32.9683 1.908C32.7843 1.908 32.5763 2.24 32.3443 2.904C32.1123 3.568 31.9083 4.392 31.7323 5.376C31.5563 6.36 31.4603 7.304 31.4443 8.208C32.0123 7.272 32.4643 6.336 32.8003 5.4C33.1363 4.456 33.3043 3.596 33.3043 2.82C33.3043 2.212 33.1923 1.908 32.9683 1.908ZM40.8381 12.096C39.7741 12.096 38.9221 11.896 38.2821 11.496C37.6421 11.088 37.3221 10.468 37.3221 9.636C37.3221 9.196 37.3981 8.86 37.5501 8.628C37.7021 8.396 37.9261 8.28 38.2221 8.28C38.4381 8.28 38.6141 8.336 38.7501 8.448C38.8861 8.56 38.9541 8.704 38.9541 8.88C38.9541 9.04 38.9421 9.18 38.9181 9.3C38.9181 9.332 38.9101 9.388 38.8941 9.468C38.8861 9.548 38.8821 9.632 38.8821 9.72C38.8821 10.08 39.0621 10.348 39.4221 10.524C39.7901 10.7 40.3021 10.788 40.9581 10.788C41.6381 10.788 42.1701 10.668 42.5541 10.428C42.9381 10.18 43.1301 9.836 43.1301 9.396C43.1301 9.124 43.0421 8.892 42.8661 8.7C42.6901 8.5 42.4701 8.336 42.2061 8.208C41.9421 8.072 41.5701 7.908 41.0901 7.716C40.4741 7.476 39.9701 7.248 39.5781 7.032C39.1941 6.816 38.8621 6.524 38.5821 6.156C38.3101 5.78 38.1741 5.316 38.1741 4.764C38.1741 4.188 38.3261 3.676 38.6301 3.228C38.9421 2.78 39.3861 2.432 39.9621 2.184C40.5461 1.936 41.2301 1.812 42.0141 1.812C42.5981 1.812 43.1341 1.9 43.6221 2.076C44.1101 2.244 44.4981 2.504 44.7861 2.856C45.0821 3.208 45.2301 3.64 45.2301 4.152C45.2301 4.656 45.1541 5.036 45.0021 5.292C44.8501 5.548 44.6261 5.676 44.3301 5.676C44.1221 5.676 43.9461 5.612 43.8021 5.484C43.6661 5.356 43.5981 5.204 43.5981 5.028C43.5981 4.876 43.6101 4.736 43.6341 4.608C43.6581 4.368 43.6701 4.216 43.6701 4.152C43.6701 3.816 43.5061 3.56 43.1781 3.384C42.8501 3.208 42.4421 3.12 41.9541 3.12C41.2661 3.12 40.7381 3.248 40.3701 3.504C40.0101 3.752 39.8301 4.104 39.8301 4.56C39.8301 4.864 39.9221 5.124 40.1061 5.34C40.2981 5.556 40.5341 5.736 40.8141 5.88C41.0941 6.024 41.4861 6.196 41.9901 6.396C42.5981 6.644 43.0861 6.868 43.4541 7.068C43.8221 7.268 44.1341 7.54 44.3901 7.884C44.6541 8.228 44.7861 8.652 44.7861 9.156C44.7861 10.1 44.4261 10.828 43.7061 11.34C42.9941 11.844 42.0381 12.096 40.8381 12.096ZM51.0452 9.324C51.1492 9.324 51.2292 9.372 51.2852 9.468C51.3492 9.564 51.3812 9.696 51.3812 9.864C51.3812 10.184 51.3052 10.432 51.1532 10.608C50.8092 11.032 50.4332 11.38 50.0252 11.652C49.6172 11.924 49.1492 12.06 48.6212 12.06C46.9892 12.06 46.1732 10.912 46.1732 8.616C46.1732 8.264 46.1852 7.908 46.2092 7.548H45.7412C45.5012 7.548 45.3372 7.504 45.2492 7.416C45.1692 7.328 45.1292 7.188 45.1292 6.996C45.1292 6.548 45.3092 6.324 45.6692 6.324H46.3532C46.4892 5.444 46.6972 4.64 46.9772 3.912C47.2572 3.184 47.5932 2.604 47.9852 2.172C48.3852 1.74 48.8132 1.524 49.2692 1.524C49.6052 1.524 49.8692 1.672 50.0612 1.968C50.2532 2.264 50.3492 2.636 50.3492 3.084C50.3492 4.324 49.8292 5.404 48.7892 6.324H50.1332C50.2612 6.324 50.3532 6.352 50.4092 6.408C50.4652 6.464 50.4932 6.568 50.4932 6.72C50.4932 7.272 50.0412 7.548 49.1372 7.548H47.6732C47.6572 7.948 47.6492 8.26 47.6492 8.484C47.6492 9.316 47.7452 9.9 47.9372 10.236C48.1372 10.572 48.4492 10.74 48.8732 10.74C49.2172 10.74 49.5212 10.636 49.7852 10.428C50.0492 10.22 50.3612 9.908 50.7212 9.492C50.8172 9.38 50.9252 9.324 51.0452 9.324ZM48.9452 2.676C48.8252 2.676 48.6892 2.828 48.5372 3.132C48.3932 3.428 48.2532 3.844 48.1172 4.38C47.9892 4.908 47.8812 5.496 47.7932 6.144C48.2652 5.736 48.6172 5.28 48.8492 4.776C49.0892 4.264 49.2092 3.8 49.2092 3.384C49.2092 2.912 49.1212 2.676 48.9452 2.676ZM56.5241 8.316C56.6281 8.316 56.7081 8.368 56.7641 8.472C56.8201 8.576 56.8481 8.708 56.8481 8.868C56.8481 9.252 56.7321 9.48 56.5001 9.552C56.0201 9.72 55.4921 9.816 54.9161 9.84C54.7641 10.512 54.4641 11.052 54.0161 11.46C53.5681 11.86 53.0601 12.06 52.4921 12.06C52.0121 12.06 51.6001 11.944 51.2561 11.712C50.9201 11.48 50.6641 11.172 50.4881 10.788C50.3121 10.404 50.2241 9.988 50.2241 9.54C50.2241 8.932 50.3401 8.392 50.5721 7.92C50.8041 7.44 51.1241 7.068 51.5321 6.804C51.9401 6.532 52.3921 6.396 52.8881 6.396C53.4961 6.396 53.9841 6.608 54.3521 7.032C54.7281 7.448 54.9481 7.964 55.0121 8.58C55.3881 8.556 55.8361 8.476 56.3561 8.34C56.4201 8.324 56.4761 8.316 56.5241 8.316ZM52.5881 10.788C52.8441 10.788 53.0641 10.684 53.2481 10.476C53.4401 10.268 53.5681 9.968 53.6321 9.576C53.3841 9.408 53.1921 9.188 53.0561 8.916C52.9281 8.644 52.8641 8.356 52.8641 8.052C52.8641 7.924 52.8761 7.796 52.9001 7.668H52.8401C52.5201 7.668 52.2521 7.824 52.0361 8.136C51.8281 8.44 51.7241 8.872 51.7241 9.432C51.7241 9.872 51.8081 10.208 51.9761 10.44C52.1521 10.672 52.3561 10.788 52.5881 10.788ZM56.6702 12.06C56.3662 12.06 56.1502 11.9 56.0222 11.58C55.9022 11.26 55.8422 10.748 55.8422 10.044C55.8422 9.004 55.9902 8.016 56.2862 7.08C56.3582 6.848 56.4742 6.68 56.6342 6.576C56.8022 6.464 57.0342 6.408 57.3302 6.408C57.4902 6.408 57.6022 6.428 57.6662 6.468C57.7302 6.508 57.7622 6.584 57.7622 6.696C57.7622 6.824 57.7022 7.112 57.5822 7.56C57.5022 7.88 57.4382 8.16 57.3902 8.4C57.3422 8.64 57.3022 8.936 57.2702 9.288C57.5342 8.6 57.8302 8.04 58.1582 7.608C58.4862 7.176 58.8062 6.868 59.1182 6.684C59.4382 6.5 59.7302 6.408 59.9942 6.408C60.5142 6.408 60.7742 6.668 60.7742 7.188C60.7742 7.292 60.7382 7.544 60.6662 7.944C60.6022 8.264 60.5702 8.464 60.5702 8.544C60.5702 8.824 60.6702 8.964 60.8702 8.964C61.0942 8.964 61.3822 8.788 61.7342 8.436C61.8382 8.332 61.9462 8.28 62.0582 8.28C62.1622 8.28 62.2422 8.328 62.2982 8.424C62.3622 8.512 62.3942 8.632 62.3942 8.784C62.3942 9.08 62.3142 9.312 62.1542 9.48C61.9302 9.712 61.6662 9.912 61.3622 10.08C61.0662 10.24 60.7502 10.32 60.4142 10.32C59.9902 10.32 59.6662 10.212 59.4422 9.996C59.2262 9.78 59.1182 9.488 59.1182 9.12C59.1182 9 59.1302 8.88 59.1542 8.76C59.1702 8.6 59.1782 8.492 59.1782 8.436C59.1782 8.308 59.1342 8.244 59.0462 8.244C58.9262 8.244 58.7662 8.38 58.5662 8.652C58.3742 8.916 58.1822 9.268 57.9902 9.708C57.7982 10.148 57.6422 10.612 57.5222 11.1C57.4342 11.476 57.3302 11.732 57.2102 11.868C57.0982 11.996 56.9182 12.06 56.6702 12.06ZM65.4791 6.408C65.6631 6.408 65.7911 6.432 65.8631 6.48C65.9351 6.528 65.9711 6.608 65.9711 6.72C65.9711 6.912 65.8671 7.596 65.6591 8.772C65.4751 9.9 65.3671 10.568 65.3351 10.776C65.0391 12.832 64.6311 14.46 64.1111 15.66C63.5911 16.86 62.8991 17.46 62.0351 17.46C61.6271 17.46 61.2951 17.332 61.0391 17.076C60.7831 16.828 60.6551 16.5 60.6551 16.092C60.6551 15.716 60.7391 15.332 60.9071 14.94C61.0831 14.548 61.4031 14.096 61.8671 13.584C62.3391 13.08 63.0031 12.5 63.8591 11.844L63.8951 11.568C63.9511 11.272 64.0151 10.848 64.0871 10.296C63.9271 10.872 63.7031 11.312 63.4151 11.616C63.1271 11.912 62.8231 12.06 62.5031 12.06C62.1431 12.06 61.8471 11.896 61.6151 11.568C61.3911 11.232 61.2791 10.816 61.2791 10.32C61.2791 9.72 61.3191 9.172 61.3991 8.676C61.4791 8.172 61.6111 7.64 61.7951 7.08C61.8751 6.84 61.9871 6.668 62.1311 6.564C62.2751 6.46 62.5031 6.408 62.8151 6.408C62.9911 6.408 63.1111 6.436 63.1751 6.492C63.2471 6.548 63.2831 6.632 63.2831 6.744C63.2831 6.808 63.2391 7.024 63.1511 7.392C63.0711 7.688 63.0071 7.956 62.9591 8.196C62.8951 8.524 62.8391 8.84 62.7911 9.144C62.7431 9.44 62.7191 9.684 62.7191 9.876C62.7191 10.18 62.8031 10.332 62.9711 10.332C63.0911 10.332 63.2391 10.212 63.4151 9.972C63.5991 9.732 63.7911 9.368 63.9911 8.88C64.1991 8.392 64.3991 7.792 64.5911 7.08C64.6551 6.84 64.7511 6.668 64.8791 6.564C65.0151 6.46 65.2151 6.408 65.4791 6.408ZM62.1671 16.296C62.3671 16.296 62.5911 16.064 62.8391 15.6C63.0871 15.136 63.3351 14.364 63.5831 13.284C62.9671 13.804 62.5191 14.276 62.2391 14.7C61.9671 15.132 61.8311 15.508 61.8311 15.828C61.8311 15.964 61.8551 16.076 61.9031 16.164C61.9591 16.252 62.0471 16.296 62.1671 16.296Z" fill="#00B1CB"/>
</svg>
